<svg width="100" height="80" viewBox="0 0 100 80" fill="none" xmlns="http://www.w3.org/2000/svg">
<mask id="path-1-inside-1_4_44" fill="white">
<path fill-rule="evenodd" clip-rule="evenodd" d="M33.3333 0C14.9238 0 0 14.9238 0 33.3333C0 51.7428 14.9239 66.6667 33.3333 66.6667H35.823C41.6962 74.7468 51.2226 80 61.9759 80H67.6898C85.5342 80 100 65.5342 100 47.6898C100 29.8454 85.5342 15.3796 67.6898 15.3796H64.9656C59.0417 6.13034 48.6745 0 36.8756 0H33.3333Z"/>
</mask>
<path fill-rule="evenodd" clip-rule="evenodd" d="M33.3333 0C14.9238 0 0 14.9238 0 33.3333C0 51.7428 14.9239 66.6667 33.3333 66.6667H35.823C41.6962 74.7468 51.2226 80 61.9759 80H67.6898C85.5342 80 100 65.5342 100 47.6898C100 29.8454 85.5342 15.3796 67.6898 15.3796H64.9656C59.0417 6.13034 48.6745 0 36.8756 0H33.3333Z" fill="#212121"/>
<path d="M35.823 66.6667L37.4408 65.4908L36.8418 64.6667H35.823V66.6667ZM64.9656 15.3796L63.2815 16.4583L63.8715 17.3796H64.9656V15.3796ZM2 33.3333C2 16.0284 16.0284 2 33.3333 2V-2C13.8193 -2 -2 13.8193 -2 33.3333H2ZM33.3333 64.6667C16.0284 64.6667 2 50.6383 2 33.3333H-2C-2 52.8474 13.8193 68.6667 33.3333 68.6667V64.6667ZM35.823 64.6667H33.3333V68.6667H35.823V64.6667ZM61.9759 78C51.8897 78 42.9538 73.0754 37.4408 65.4908L34.2052 67.8426C40.4385 76.4182 50.5555 82 61.9759 82V78ZM67.6898 78H61.9759V82H67.6898V78ZM98 47.6898C98 64.4297 84.4297 78 67.6898 78V82C86.6388 82 102 66.6388 102 47.6898H98ZM67.6898 17.3796C84.4296 17.3796 98 30.95 98 47.6898H102C102 28.7408 86.6388 13.3796 67.6898 13.3796V17.3796ZM64.9656 17.3796H67.6898V13.3796H64.9656V17.3796ZM36.8756 2C47.9645 2 57.7096 7.75882 63.2815 16.4583L66.6498 14.301C60.3737 4.50185 49.3846 -2 36.8756 -2V2ZM33.3333 2H36.8756V-2H33.3333V2Z" fill="#BD6600" mask="url(#path-1-inside-1_4_44)"/>
<rect width="9.98902" height="9.95225" rx="4.97612" transform="matrix(0.616255 0.787547 -0.777601 0.628758 83.6944 47)" fill="white"/>
<rect width="9.98902" height="9.95225" rx="4.97612" transform="matrix(0.616255 0.787547 -0.777601 0.628758 79.739 50.0156)" fill="white"/>
<rect width="9.98902" height="9.95225" rx="4.97612" transform="matrix(0.616255 0.787547 -0.777601 0.628758 49.6944 27)" fill="#BD6600"/>
<rect width="9.98902" height="9.95225" rx="4.97612" transform="matrix(0.616255 0.787547 -0.777601 0.628758 50.6833 31.4445)" fill="#BD6600"/>
<rect width="9.98902" height="9.95225" rx="4.97612" transform="matrix(0.616255 0.787547 -0.777601 0.628758 45.739 30.0156)" fill="#BD6600"/>
<rect width="9.98902" height="9.95225" rx="4.97612" transform="matrix(0.616255 0.787547 -0.777601 0.628758 22.2167 9.14286)" fill="white"/>
<rect width="9.98902" height="9.95225" rx="4.97612" transform="matrix(0.616255 0.787547 -0.777601 0.628758 25.1833 12.1585)" fill="white"/>
<rect width="9.98902" height="9.95225" rx="4.97612" transform="matrix(0.616255 0.787547 -0.777601 0.628758 20.2389 12.6984)" fill="white"/>
<path d="M45.5632 33.988C45.5539 33.8387 45.5492 33.6147 45.5492 33.316V32.784C45.5492 32.4293 45.5399 32.1633 45.5212 31.986C45.5025 31.8367 45.4932 31.4493 45.4932 30.824C45.4932 30.6 45.5585 30.4273 45.6892 30.306C45.8292 30.1753 46.0159 30.11 46.2492 30.11C46.5479 30.11 46.7485 30.1753 46.8512 30.306C46.9539 30.4367 47.0052 30.6513 47.0052 30.95V31.482L46.9912 33.022C46.9819 33.3207 46.9772 33.7687 46.9772 34.366L46.9912 35.514C47.0005 35.6913 47.0052 35.9387 47.0052 36.256C47.0052 36.508 47.0145 36.8673 47.0332 37.334C47.0519 37.7633 47.0612 38.0853 47.0612 38.3C47.0612 38.4773 47.0099 38.6407 46.9072 38.79C46.8139 38.9393 46.6832 39.014 46.5152 39.014C45.8619 39.014 45.5352 38.7947 45.5352 38.356C45.5352 38.1133 45.5445 37.8427 45.5632 37.544C45.5819 37.3293 45.5912 37.0027 45.5912 36.564C45.5912 36.256 45.5819 35.8127 45.5632 35.234C45.1245 35.2713 44.3685 35.29 43.2952 35.29C42.6232 35.29 42.1005 35.29 41.7272 35.29C41.3539 35.2807 41.0832 35.2573 40.9152 35.22L40.9012 36.83C40.9012 36.9327 40.9245 37.208 40.9712 37.656C41.0179 37.9547 41.0412 38.216 41.0412 38.44C41.0412 38.58 40.9572 38.7153 40.7892 38.846C40.6305 38.9673 40.4812 39.028 40.3412 39.028C40.0052 39.028 39.7765 38.9487 39.6552 38.79C39.5339 38.622 39.4732 38.37 39.4732 38.034L39.4592 36.928C39.4499 36.7973 39.4452 36.6153 39.4452 36.382C39.4452 36.0367 39.4359 35.5653 39.4172 34.968C39.3985 34.4267 39.3892 34.0347 39.3892 33.792C39.3892 33.428 39.3985 32.9193 39.4172 32.266C39.4359 31.65 39.4452 31.1927 39.4452 30.894C39.4452 30.5953 39.5199 30.3947 39.6692 30.292C39.8185 30.1893 39.9865 30.138 40.1732 30.138C40.6959 30.138 40.9572 30.3107 40.9572 30.656C40.9572 31.272 40.9432 31.86 40.9152 32.42C40.8965 33.1293 40.8872 33.6473 40.8872 33.974C41.1579 34.0393 41.4425 34.0813 41.7412 34.1C42.0399 34.1187 42.4599 34.128 43.0012 34.128C44.1025 34.128 44.9565 34.0813 45.5632 33.988ZM52.9326 30.096C53.5579 30.096 54.1272 30.1753 54.6406 30.334C55.1539 30.4833 55.5739 30.7073 55.9006 31.006C56.4886 31.538 56.8992 32.1213 57.1326 32.756C57.3752 33.3813 57.4966 34.184 57.4966 35.164C57.4966 35.3693 57.4686 35.556 57.4126 35.724C57.3659 35.892 57.2866 36.1067 57.1746 36.368C57.0346 36.6573 56.9506 36.886 56.9226 37.054C56.7359 37.3807 56.4279 37.6933 55.9986 37.992C55.5786 38.2907 55.1212 38.5333 54.6266 38.72C54.1319 38.9067 53.6979 39 53.3246 39C51.5232 39 50.2399 38.384 49.4746 37.152C49.2599 36.8067 49.0919 36.4473 48.9706 36.074C48.8586 35.7007 48.8026 35.3367 48.8026 34.982C48.8026 34.03 48.9706 33.204 49.3066 32.504C49.6519 31.7947 50.1279 31.244 50.7346 30.852C51.0986 30.6373 51.4766 30.46 51.8686 30.32C52.2699 30.1707 52.6246 30.096 52.9326 30.096ZM50.2586 35.024C50.2586 35.528 50.3706 35.9433 50.5946 36.27C50.8279 36.5967 51.1826 36.9513 51.6586 37.334C52.0506 37.4833 52.3166 37.5813 52.4566 37.628C52.5966 37.6653 52.7552 37.684 52.9326 37.684C53.8752 37.684 54.6266 37.4273 55.1866 36.914C55.7466 36.4007 56.0266 35.696 56.0266 34.8C56.0266 34.0907 55.9472 33.5307 55.7886 33.12C55.6299 32.7093 55.3452 32.3407 54.9346 32.014C54.7199 31.8367 54.4446 31.706 54.1086 31.622C53.7819 31.538 53.4272 31.496 53.0446 31.496C52.4659 31.496 51.9666 31.6687 51.5466 32.014C51.1266 32.35 50.8046 32.7887 50.5806 33.33C50.3659 33.8713 50.2586 34.436 50.2586 35.024ZM68.3691 30.852C68.3691 31.412 68.3504 32.196 68.3131 33.204C68.3038 33.4467 68.2944 33.7407 68.2851 34.086C68.2758 34.422 68.2711 34.814 68.2711 35.262C68.2711 36.7273 68.3504 37.7773 68.5091 38.412C68.4998 38.6453 68.4111 38.8133 68.2431 38.916C68.0751 39.0093 67.9024 39.056 67.7251 39.056C67.3611 39.056 67.1184 38.9253 66.9971 38.664C66.8851 38.3933 66.8291 38.0153 66.8291 37.53C66.8291 35.7287 66.8571 34.0627 66.9131 32.532C66.7358 32.8867 66.5678 33.2787 66.4091 33.708C66.2598 34.128 66.0591 34.716 65.8071 35.472C65.5458 36.2933 65.3218 36.942 65.1351 37.418C64.9578 37.894 64.7711 38.2627 64.5751 38.524C64.5191 38.552 64.4071 38.608 64.2391 38.692C64.0804 38.7667 63.9404 38.804 63.8191 38.804C63.6231 38.804 63.4831 38.7713 63.3991 38.706C63.3151 38.6407 63.2404 38.5473 63.1751 38.426C63.1098 38.3047 63.0538 38.2067 63.0071 38.132C62.8578 37.908 62.6664 37.5393 62.4331 37.026C62.1998 36.5127 61.9851 35.976 61.7891 35.416C61.7144 35.22 61.6444 35.0333 61.5791 34.856C61.5231 34.6693 61.4671 34.4967 61.4111 34.338C61.2991 34.002 61.1871 33.6893 61.0751 33.4C60.9724 33.1013 60.8838 32.8913 60.8091 32.77C60.8091 33.2647 60.7951 33.7593 60.7671 34.254C60.7484 34.8513 60.7391 35.2807 60.7391 35.542C60.7391 35.7287 60.7484 35.9807 60.7671 36.298C60.8231 37.2687 60.8511 37.908 60.8511 38.216C60.8511 38.44 60.7951 38.6313 60.6831 38.79C60.5711 38.9487 60.3984 39.028 60.1651 39.028C59.9131 39.028 59.7078 38.9813 59.5491 38.888C59.3998 38.7853 59.3204 38.636 59.3111 38.44C59.3204 38.2813 59.3251 38.0247 59.3251 37.67C59.3251 36.9513 59.2971 35.808 59.2411 34.24L59.2271 33.736C59.2271 33.3813 59.2458 32.8773 59.2831 32.224C59.2924 32.0653 59.3018 31.8787 59.3111 31.664C59.3204 31.4493 59.3251 31.216 59.3251 30.964C59.3251 30.6747 59.4231 30.4647 59.6191 30.334C59.8151 30.194 60.0671 30.124 60.3751 30.124C60.5618 30.124 60.7484 30.1707 60.9351 30.264C61.1311 30.3573 61.2758 30.4927 61.3691 30.67C61.5558 31.0527 61.7424 31.5053 61.9291 32.028C62.1158 32.5413 62.3678 33.274 62.6851 34.226C62.9838 35.1313 63.2218 35.822 63.3991 36.298C63.5764 36.7647 63.7258 37.082 63.8471 37.25L64.1691 36.298C65.2238 33.078 65.9331 31.174 66.2971 30.586C66.3811 30.474 66.5258 30.376 66.7311 30.292C66.9458 30.1987 67.1464 30.152 67.3331 30.152C67.4731 30.152 67.6784 30.2407 67.9491 30.418C68.2291 30.586 68.3691 30.7307 68.3691 30.852ZM76.8901 38.104C76.8994 38.3 76.8761 38.44 76.8201 38.524C76.7641 38.5987 76.6521 38.678 76.4841 38.762C76.2321 38.8833 75.9334 38.9627 75.5881 39C75.2521 39.0373 74.8181 39.056 74.2861 39.056H73.3341C72.5034 39.056 71.8874 38.916 71.4861 38.636C71.0847 38.3467 70.8327 38.0013 70.7301 37.6C70.6274 37.1987 70.5667 36.6807 70.5481 36.046C70.5387 35.8313 70.5341 35.514 70.5341 35.094C70.5341 34.1793 70.6134 32.9567 70.7721 31.426C70.8187 30.978 70.9821 30.656 71.2621 30.46C71.5421 30.2547 71.8594 30.152 72.2141 30.152C72.5034 30.152 72.9747 30.1427 73.6281 30.124L74.8601 30.11C75.3641 30.11 75.7281 30.124 75.9521 30.152C76.2321 30.208 76.4421 30.2733 76.5821 30.348C76.7221 30.4133 76.7967 30.53 76.8061 30.698C76.8061 30.8847 76.7454 31.0667 76.6241 31.244C76.5027 31.4213 76.3161 31.51 76.0641 31.51C75.7747 31.51 75.3594 31.4913 74.8181 31.454C74.2767 31.4167 73.8661 31.398 73.5861 31.398C73.3341 31.398 73.1054 31.412 72.9001 31.44C72.6387 31.4587 72.4521 31.4913 72.3401 31.538C72.2281 31.5847 72.1674 31.664 72.1581 31.776C72.0554 32.7933 72.0134 33.5027 72.0321 33.904C72.2467 33.932 72.4614 33.946 72.6761 33.946C72.8907 33.946 73.1847 33.9273 73.5581 33.89C73.6514 33.8807 73.7681 33.8713 73.9081 33.862C74.0481 33.8527 74.2067 33.848 74.3841 33.848C74.4867 33.848 74.6501 33.8573 74.8741 33.876L75.3081 33.89C75.7374 33.89 75.9521 34.044 75.9521 34.352C75.9521 34.5387 75.9007 34.688 75.7981 34.8C75.6954 34.912 75.5134 34.996 75.2521 35.052C74.8974 35.1173 74.3234 35.15 73.5301 35.15H72.6761C72.4987 35.15 72.2794 35.1407 72.0181 35.122C72.0087 35.29 72.0041 35.5327 72.0041 35.85C72.0041 36.2607 72.0087 36.55 72.0181 36.718C72.0461 37.3713 72.4987 37.698 73.3761 37.698C73.6747 37.698 73.9921 37.7073 74.3281 37.726L74.8461 37.74C75.0887 37.74 75.2894 37.7167 75.4481 37.67C75.6067 37.614 75.7607 37.5673 75.9101 37.53C76.0687 37.4833 76.2134 37.46 76.3441 37.46C76.5214 37.46 76.6567 37.53 76.7501 37.67C76.8434 37.8007 76.8901 37.9453 76.8901 38.104Z" fill="white"/>
<path d="M29.8184 55.836C29.4544 55.836 29.1464 55.8267 28.8944 55.808C28.6517 55.78 28.3297 55.738 27.9284 55.682L27.9144 57.152C27.905 57.404 27.9004 57.7633 27.9004 58.23C27.9004 58.4727 27.8304 58.664 27.6904 58.804C27.5597 58.9347 27.4104 59 27.2424 59C26.9344 59 26.7057 58.9627 26.5564 58.888C26.407 58.804 26.3324 58.6593 26.3324 58.454C26.3324 58.1833 26.3557 57.8007 26.4024 57.306C26.505 56.242 26.5564 55.15 26.5564 54.03C26.5564 52.9847 26.5237 52 26.4584 51.076C26.4677 50.9453 26.533 50.796 26.6544 50.628C26.785 50.46 26.9484 50.3667 27.1444 50.348C27.359 50.348 27.6997 50.3107 28.1664 50.236C28.6517 50.1613 29.0204 50.124 29.2724 50.124C30.0377 50.124 30.6304 50.1987 31.0504 50.348C31.4797 50.4973 31.909 50.7447 32.3384 51.09C32.805 51.818 33.0384 52.3313 33.0384 52.63C33.0384 53.2553 32.9124 53.8107 32.6604 54.296C32.4084 54.7813 32.0397 55.1593 31.5544 55.43C31.069 55.7007 30.4904 55.836 29.8184 55.836ZM29.4964 51.314C29.1977 51.314 28.9364 51.3327 28.7124 51.37C28.4977 51.398 28.2364 51.4493 27.9284 51.524C27.9657 52.3827 27.9844 53.008 27.9844 53.4C27.9844 53.8013 27.9704 54.1373 27.9424 54.408C28.3437 54.492 28.661 54.548 28.8944 54.576C29.1277 54.5947 29.389 54.604 29.6784 54.604C30.369 54.604 30.8544 54.4267 31.1344 54.072C31.4237 53.708 31.5684 53.288 31.5684 52.812C31.5684 52.672 31.5264 52.4993 31.4424 52.294C31.3584 52.0887 31.2837 51.9533 31.2184 51.888C30.9664 51.664 30.719 51.5147 30.4764 51.44C30.243 51.356 29.9164 51.314 29.4964 51.314ZM35.0724 50.11C35.2497 50.11 35.4084 50.1567 35.5484 50.25C35.6977 50.3433 35.7864 50.5067 35.8144 50.74C35.9264 51.4773 35.9964 52.2147 36.0244 52.952C36.0617 53.68 36.0804 54.506 36.0804 55.43C36.0804 55.822 36.0477 56.536 35.9824 57.572C36.3931 57.6093 36.7104 57.628 36.9344 57.628C37.0931 57.628 37.4524 57.6047 38.0124 57.558C38.3391 57.5113 38.6237 57.488 38.8664 57.488C39.0904 57.488 39.2957 57.5113 39.4824 57.558C39.6691 57.5953 39.8604 57.6607 40.0564 57.754C40.2524 57.866 40.3504 58.0387 40.3504 58.272C40.3504 58.4587 40.2897 58.6267 40.1684 58.776C40.0564 58.9253 39.9211 59 39.7624 59C39.6504 59 39.4731 58.9813 39.2304 58.944C38.7917 58.8787 38.3717 58.846 37.9704 58.846C37.8397 58.846 37.6904 58.8553 37.5224 58.874C37.3637 58.8833 37.2471 58.888 37.1724 58.888C36.9484 58.916 36.7244 58.93 36.5004 58.93C36.0431 58.93 35.6324 58.9067 35.2684 58.86C35.0817 58.8413 34.8951 58.7713 34.7084 58.65C34.5217 58.5193 34.4284 58.3327 34.4284 58.09C34.4284 57.95 34.4471 57.5907 34.4844 57.012C34.5497 56.0507 34.5824 55.318 34.5824 54.814C34.5824 54.422 34.5637 54.0113 34.5264 53.582C34.4891 53.1527 34.4657 52.882 34.4564 52.77C34.3724 51.9767 34.3304 51.3233 34.3304 50.81C34.3304 50.5673 34.3864 50.39 34.4984 50.278C34.6197 50.166 34.8111 50.11 35.0724 50.11ZM47.8108 58.79C47.6894 58.6313 47.5868 58.4587 47.5028 58.272C47.4188 58.076 47.3301 57.8427 47.2368 57.572C47.2181 57.5253 47.1621 57.3853 47.0688 57.152C46.9848 56.9187 46.8868 56.718 46.7748 56.55C46.1868 56.634 45.7061 56.676 45.3328 56.676C45.1274 56.676 44.8988 56.6713 44.6468 56.662C44.4041 56.6433 44.2221 56.634 44.1008 56.634C43.6341 56.5967 43.2608 56.578 42.9808 56.578C42.8688 56.7273 42.7708 56.886 42.6868 57.054C42.6121 57.222 42.5141 57.474 42.3928 57.81C42.2248 58.2953 42.0801 58.6407 41.9588 58.846C41.8748 58.986 41.7114 59.056 41.4688 59.056C41.2634 59.056 41.0721 59.014 40.8948 58.93C40.7268 58.8367 40.6428 58.7107 40.6428 58.552C40.7174 58.1973 40.8341 57.824 40.9928 57.432C41.1608 57.0307 41.3988 56.4987 41.7068 55.836L42.2668 54.464C42.5748 53.68 42.8548 53.008 43.1068 52.448C43.3681 51.888 43.7088 51.2253 44.1288 50.46C44.1848 50.348 44.2781 50.2547 44.4088 50.18C44.5394 50.096 44.6841 50.054 44.8428 50.054C45.0201 50.054 45.1461 50.068 45.2208 50.096C45.3048 50.1147 45.3701 50.152 45.4168 50.208C45.4634 50.2547 45.5334 50.3573 45.6268 50.516C45.9441 51.0107 46.2148 51.5193 46.4388 52.042C46.6721 52.5647 46.9661 53.288 47.3208 54.212L47.6148 54.954C47.8761 55.626 48.1001 56.1907 48.2868 56.648C48.4828 57.096 48.6974 57.5067 48.9308 57.88C49.0801 58.1227 49.1548 58.2907 49.1548 58.384C49.1548 58.608 49.0848 58.7807 48.9448 58.902C48.8141 59.014 48.6414 59.07 48.4268 59.07C48.1561 59.07 47.9508 58.9767 47.8108 58.79ZM46.3688 55.402C46.2194 55.0847 46.0048 54.534 45.7248 53.75C45.4354 52.91 45.1461 52.2427 44.8568 51.748C44.6794 52.196 44.4181 52.7747 44.0728 53.484C43.8394 53.9227 43.5734 54.5573 43.2748 55.388C43.8721 55.4627 44.5161 55.5 45.2068 55.5C45.7014 55.5 46.0888 55.4673 46.3688 55.402ZM56.2338 51.132C56.2338 50.8613 56.2945 50.628 56.4158 50.432C56.5465 50.2267 56.7378 50.124 56.9898 50.124C57.2045 50.124 57.3958 50.166 57.5638 50.25C57.7318 50.334 57.8158 50.474 57.8158 50.67C57.8158 51.0527 57.7972 51.5893 57.7598 52.28C57.7225 52.952 57.7038 53.4513 57.7038 53.778C57.7038 54.2913 57.7225 54.9773 57.7598 55.836C57.7972 56.6573 57.8158 57.2593 57.8158 57.642C57.8158 57.95 57.8112 58.1787 57.8018 58.328C57.8018 58.4773 57.7178 58.6267 57.5498 58.776C57.3912 58.916 57.1438 58.986 56.8078 58.986C56.6305 58.986 56.4765 58.958 56.3458 58.902C56.2245 58.8367 56.1405 58.7667 56.0938 58.692C55.6552 58.16 55.0158 57.2547 54.1758 55.976C53.2332 54.548 52.4632 53.456 51.8658 52.7C51.9405 53.372 51.9778 54.1933 51.9778 55.164C51.9778 55.5933 51.9685 56.1533 51.9498 56.844C51.9405 57.5253 51.9218 57.9733 51.8938 58.188C51.8565 58.4587 51.7725 58.6687 51.6418 58.818C51.5205 58.958 51.3245 59.028 51.0538 59.028C50.8485 59.028 50.6945 58.972 50.5918 58.86C50.4985 58.7387 50.4425 58.5333 50.4238 58.244C50.4145 57.8613 50.4378 57.2873 50.4938 56.522C50.5032 56.4007 50.5172 56.1907 50.5358 55.892C50.5545 55.5933 50.5638 55.3273 50.5638 55.094C50.5638 54.45 50.5312 53.7127 50.4658 52.882C50.4098 51.9673 50.3818 51.2907 50.3818 50.852C50.3818 50.628 50.4612 50.4553 50.6198 50.334C50.7878 50.2127 50.9792 50.152 51.1938 50.152C51.3805 50.152 51.5765 50.1987 51.7818 50.292C52.5845 51.3 53.6718 52.8027 55.0438 54.8L56.3598 56.816C56.3692 56.6667 56.3738 56.4567 56.3738 56.186C56.3738 55.71 56.3645 55.1967 56.3458 54.646C56.3272 54.0953 56.3132 53.722 56.3038 53.526C56.2572 52.6207 56.2338 51.8227 56.2338 51.132ZM65.6811 51.132C65.6811 50.8613 65.7418 50.628 65.8631 50.432C65.9938 50.2267 66.1851 50.124 66.4371 50.124C66.6518 50.124 66.8431 50.166 67.0111 50.25C67.1791 50.334 67.2631 50.474 67.2631 50.67C67.2631 51.0527 67.2444 51.5893 67.2071 52.28C67.1698 52.952 67.1511 53.4513 67.1511 53.778C67.1511 54.2913 67.1698 54.9773 67.2071 55.836C67.2444 56.6573 67.2631 57.2593 67.2631 57.642C67.2631 57.95 67.2584 58.1787 67.2491 58.328C67.2491 58.4773 67.1651 58.6267 66.9971 58.776C66.8384 58.916 66.5911 58.986 66.2551 58.986C66.0778 58.986 65.9238 58.958 65.7931 58.902C65.6718 58.8367 65.5878 58.7667 65.5411 58.692C65.1024 58.16 64.4631 57.2547 63.6231 55.976C62.6804 54.548 61.9104 53.456 61.3131 52.7C61.3878 53.372 61.4251 54.1933 61.4251 55.164C61.4251 55.5933 61.4158 56.1533 61.3971 56.844C61.3878 57.5253 61.3691 57.9733 61.3411 58.188C61.3038 58.4587 61.2198 58.6687 61.0891 58.818C60.9678 58.958 60.7718 59.028 60.5011 59.028C60.2958 59.028 60.1418 58.972 60.0391 58.86C59.9458 58.7387 59.8898 58.5333 59.8711 58.244C59.8618 57.8613 59.8851 57.2873 59.9411 56.522C59.9504 56.4007 59.9644 56.1907 59.9831 55.892C60.0018 55.5933 60.0111 55.3273 60.0111 55.094C60.0111 54.45 59.9784 53.7127 59.9131 52.882C59.8571 51.9673 59.8291 51.2907 59.8291 50.852C59.8291 50.628 59.9084 50.4553 60.0671 50.334C60.2351 50.2127 60.4264 50.152 60.6411 50.152C60.8278 50.152 61.0238 50.1987 61.2291 50.292C62.0318 51.3 63.1191 52.8027 64.4911 54.8L65.8071 56.816C65.8164 56.6667 65.8211 56.4567 65.8211 56.186C65.8211 55.71 65.8118 55.1967 65.7931 54.646C65.7744 54.0953 65.7604 53.722 65.7511 53.526C65.7044 52.6207 65.6811 51.8227 65.6811 51.132ZM75.6464 58.104C75.6557 58.3 75.6324 58.44 75.5764 58.524C75.5204 58.5987 75.4084 58.678 75.2404 58.762C74.9884 58.8833 74.6897 58.9627 74.3444 59C74.0084 59.0373 73.5744 59.056 73.0424 59.056H72.0904C71.2597 59.056 70.6437 58.916 70.2424 58.636C69.841 58.3467 69.589 58.0013 69.4864 57.6C69.3837 57.1987 69.323 56.6807 69.3044 56.046C69.295 55.8313 69.2904 55.514 69.2904 55.094C69.2904 54.1793 69.3697 52.9567 69.5284 51.426C69.575 50.978 69.7384 50.656 70.0184 50.46C70.2984 50.2547 70.6157 50.152 70.9704 50.152C71.2597 50.152 71.731 50.1427 72.3844 50.124L73.6164 50.11C74.1204 50.11 74.4844 50.124 74.7084 50.152C74.9884 50.208 75.1984 50.2733 75.3384 50.348C75.4784 50.4133 75.553 50.53 75.5624 50.698C75.5624 50.8847 75.5017 51.0667 75.3804 51.244C75.259 51.4213 75.0724 51.51 74.8204 51.51C74.531 51.51 74.1157 51.4913 73.5744 51.454C73.033 51.4167 72.6224 51.398 72.3424 51.398C72.0904 51.398 71.8617 51.412 71.6564 51.44C71.395 51.4587 71.2084 51.4913 71.0964 51.538C70.9844 51.5847 70.9237 51.664 70.9144 51.776C70.8117 52.7933 70.7697 53.5027 70.7884 53.904C71.003 53.932 71.2177 53.946 71.4324 53.946C71.647 53.946 71.941 53.9273 72.3144 53.89C72.4077 53.8807 72.5244 53.8713 72.6644 53.862C72.8044 53.8527 72.963 53.848 73.1404 53.848C73.243 53.848 73.4064 53.8573 73.6304 53.876L74.0644 53.89C74.4937 53.89 74.7084 54.044 74.7084 54.352C74.7084 54.5387 74.657 54.688 74.5544 54.8C74.4517 54.912 74.2697 54.996 74.0084 55.052C73.6537 55.1173 73.0797 55.15 72.2864 55.15H71.4324C71.255 55.15 71.0357 55.1407 70.7744 55.122C70.765 55.29 70.7604 55.5327 70.7604 55.85C70.7604 56.2607 70.765 56.55 70.7744 56.718C70.8024 57.3713 71.255 57.698 72.1324 57.698C72.431 57.698 72.7484 57.7073 73.0844 57.726L73.6024 57.74C73.845 57.74 74.0457 57.7167 74.2044 57.67C74.363 57.614 74.517 57.5673 74.6664 57.53C74.825 57.4833 74.9697 57.46 75.1004 57.46C75.2777 57.46 75.413 57.53 75.5064 57.67C75.5997 57.8007 75.6464 57.9453 75.6464 58.104ZM84.1804 57.684C84.3204 57.684 84.4324 57.7447 84.5164 57.866C84.6097 57.9873 84.6564 58.118 84.6564 58.258C84.6564 58.5007 84.563 58.6873 84.3764 58.818C84.199 58.9393 83.9657 59 83.6764 59C83.247 59 82.9017 58.9253 82.6404 58.776C82.379 58.6267 82.1457 58.3467 81.9404 57.936C81.875 57.7867 81.7957 57.544 81.7024 57.208C81.6184 56.872 81.5297 56.606 81.4364 56.41C81.3524 56.2047 81.2077 56.032 81.0024 55.892C80.8064 55.752 80.5357 55.6773 80.1904 55.668L79.8824 55.682C79.565 55.7007 79.327 55.71 79.1684 55.71C78.9817 55.71 78.8044 55.696 78.6364 55.668C78.655 56.9 78.6644 57.8427 78.6644 58.496C78.6644 58.664 78.5804 58.804 78.4124 58.916C78.2537 59.028 78.0717 59.084 77.8664 59.084C77.6237 59.084 77.4324 58.9907 77.2924 58.804C77.1804 58.58 77.1244 58.2487 77.1244 57.81C77.1244 57.6607 77.1337 57.446 77.1524 57.166L77.1664 56.55C77.1664 55.9807 77.1897 55.3693 77.2364 54.716C77.2737 53.9693 77.2924 53.4233 77.2924 53.078C77.2924 52.7887 77.2644 52.4013 77.2084 51.916C77.199 51.8227 77.185 51.6733 77.1664 51.468C77.1477 51.2533 77.1384 51.062 77.1384 50.894C77.1384 50.7727 77.1897 50.6607 77.2924 50.558C77.395 50.4553 77.4977 50.39 77.6004 50.362C78.3657 50.2407 79.1217 50.18 79.8684 50.18C81.0817 50.18 82.0757 50.4087 82.8504 50.866C83.625 51.3233 84.0124 52.0233 84.0124 52.966C84.0124 53.246 83.9377 53.54 83.7884 53.848C83.6484 54.1467 83.471 54.38 83.2564 54.548C82.8924 54.8653 82.5004 55.0707 82.0804 55.164C82.099 55.1827 82.2017 55.276 82.3884 55.444C82.575 55.612 82.701 55.7893 82.7664 55.976L82.9484 56.536C83.107 56.9933 83.233 57.3107 83.3264 57.488C83.4197 57.656 83.541 57.74 83.6904 57.74C83.8304 57.74 83.9144 57.7307 83.9424 57.712C83.9797 57.6933 84.059 57.684 84.1804 57.684ZM78.6224 54.478C78.9024 54.4967 79.0984 54.506 79.2104 54.506C79.3784 54.506 79.6117 54.4967 79.9104 54.478L80.5684 54.464C80.8577 54.464 81.1564 54.3987 81.4644 54.268C81.7724 54.1373 82.029 53.9553 82.2344 53.722C82.4397 53.4793 82.5424 53.2087 82.5424 52.91C82.5424 52.378 82.3277 51.9907 81.8984 51.748C81.469 51.5053 80.8017 51.384 79.8964 51.384C79.551 51.384 79.145 51.4307 78.6784 51.524C78.697 51.86 78.7064 52.1027 78.7064 52.252C78.7064 52.4293 78.697 52.6953 78.6784 53.05L78.6644 53.456C78.6364 53.848 78.6224 54.1887 78.6224 54.478Z" fill="#BD6600"/>
<path d="M17.154 13.838C17.154 13.4367 17.448 13.236 18.036 13.236C18.288 13.236 18.7687 13.2453 19.478 13.264C20.262 13.3013 20.8547 13.32 21.256 13.32C21.5827 13.32 21.9793 13.3013 22.446 13.264C22.7633 13.2453 22.964 13.236 23.048 13.236C23.5613 13.2547 23.9953 13.348 24.35 13.516C24.4527 13.5627 24.5367 13.6187 24.602 13.684C24.6673 13.7493 24.7 13.8567 24.7 14.006C24.7 14.2113 24.6347 14.3887 24.504 14.538C24.3733 14.678 24.2147 14.748 24.028 14.748C23.8227 14.748 23.524 14.72 23.132 14.664C22.7867 14.5987 22.4833 14.566 22.222 14.566C21.97 14.566 21.7787 14.5707 21.648 14.58C21.62 14.888 21.606 15.6253 21.606 16.792C21.606 18.1827 21.648 19.592 21.732 21.02L21.76 21.426C21.76 21.8087 21.5407 22 21.102 22C20.7567 22 20.5233 21.9207 20.402 21.762C20.2807 21.594 20.22 21.342 20.22 21.006C20.22 20.3433 20.2013 19.5173 20.164 18.528C20.1267 17.7067 20.108 17.1233 20.108 16.778C20.108 16.5447 20.136 15.8307 20.192 14.636L18.554 14.65C18.0313 14.65 17.6673 14.6033 17.462 14.51C17.2567 14.4073 17.154 14.1833 17.154 13.838ZM33.5697 16.988C33.5603 16.8387 33.5557 16.6147 33.5557 16.316V15.784C33.5557 15.4293 33.5463 15.1633 33.5277 14.986C33.509 14.8367 33.4997 14.4493 33.4997 13.824C33.4997 13.6 33.565 13.4273 33.6957 13.306C33.8357 13.1753 34.0223 13.11 34.2557 13.11C34.5543 13.11 34.755 13.1753 34.8577 13.306C34.9603 13.4367 35.0117 13.6513 35.0117 13.95V14.482L34.9977 16.022C34.9883 16.3207 34.9837 16.7687 34.9837 17.366L34.9977 18.514C35.007 18.6913 35.0117 18.9387 35.0117 19.256C35.0117 19.508 35.021 19.8673 35.0397 20.334C35.0583 20.7633 35.0677 21.0853 35.0677 21.3C35.0677 21.4773 35.0163 21.6407 34.9137 21.79C34.8203 21.9393 34.6897 22.014 34.5217 22.014C33.8683 22.014 33.5417 21.7947 33.5417 21.356C33.5417 21.1133 33.551 20.8427 33.5697 20.544C33.5883 20.3293 33.5977 20.0027 33.5977 19.564C33.5977 19.256 33.5883 18.8127 33.5697 18.234C33.131 18.2713 32.375 18.29 31.3017 18.29C30.6297 18.29 30.107 18.29 29.7337 18.29C29.3603 18.2807 29.0897 18.2573 28.9217 18.22L28.9077 19.83C28.9077 19.9327 28.931 20.208 28.9777 20.656C29.0243 20.9547 29.0477 21.216 29.0477 21.44C29.0477 21.58 28.9637 21.7153 28.7957 21.846C28.637 21.9673 28.4877 22.028 28.3477 22.028C28.0117 22.028 27.783 21.9487 27.6617 21.79C27.5403 21.622 27.4797 21.37 27.4797 21.034L27.4657 19.928C27.4563 19.7973 27.4517 19.6153 27.4517 19.382C27.4517 19.0367 27.4423 18.5653 27.4237 17.968C27.405 17.4267 27.3957 17.0347 27.3957 16.792C27.3957 16.428 27.405 15.9193 27.4237 15.266C27.4423 14.65 27.4517 14.1927 27.4517 13.894C27.4517 13.5953 27.5263 13.3947 27.6757 13.292C27.825 13.1893 27.993 13.138 28.1797 13.138C28.7023 13.138 28.9637 13.3107 28.9637 13.656C28.9637 14.272 28.9497 14.86 28.9217 15.42C28.903 16.1293 28.8937 16.6473 28.8937 16.974C29.1643 17.0393 29.449 17.0813 29.7477 17.1C30.0463 17.1187 30.4663 17.128 31.0077 17.128C32.109 17.128 32.963 17.0813 33.5697 16.988ZM44.369 20.096C44.5463 20.096 44.677 20.166 44.761 20.306C44.8543 20.4367 44.901 20.5813 44.901 20.74C44.901 20.936 44.8683 21.076 44.803 21.16C44.747 21.2347 44.635 21.314 44.467 21.398C44.075 21.5847 43.5897 21.734 43.011 21.846C42.4323 21.958 41.8117 22.014 41.149 22.014C40.3183 22.014 39.707 21.874 39.315 21.594C38.9323 21.314 38.6943 20.978 38.601 20.586C38.517 20.1847 38.475 19.662 38.475 19.018C38.475 18.3273 38.503 17.6507 38.559 16.988C38.615 16.316 38.713 15.462 38.853 14.426C38.9183 13.978 39.0957 13.656 39.385 13.46C39.6743 13.2547 39.9917 13.152 40.337 13.152C40.6263 13.152 41.0977 13.1427 41.751 13.124L42.969 13.11C43.473 13.11 43.837 13.124 44.061 13.152C44.341 13.208 44.5463 13.2733 44.677 13.348C44.817 13.4133 44.887 13.53 44.887 13.698C44.887 13.8847 44.8217 14.0667 44.691 14.244C44.5697 14.4213 44.383 14.51 44.131 14.51C43.8417 14.51 43.4263 14.4913 42.885 14.454C42.3437 14.4167 41.9377 14.398 41.667 14.398C41.4337 14.398 41.205 14.412 40.981 14.44C40.7197 14.4587 40.533 14.4913 40.421 14.538C40.309 14.5847 40.2437 14.664 40.225 14.776C40.0943 15.7373 40.029 16.4467 40.029 16.904C40.2437 16.932 40.4537 16.946 40.659 16.946C40.9203 16.946 41.2003 16.932 41.499 16.904C41.7977 16.876 41.989 16.8573 42.073 16.848C42.5677 16.8013 42.9923 16.778 43.347 16.778C43.5523 16.778 43.7063 16.8153 43.809 16.89C43.921 16.9647 43.977 17.0673 43.977 17.198C43.977 17.4033 43.921 17.562 43.809 17.674C43.7063 17.786 43.5197 17.87 43.249 17.926C42.9223 17.9913 42.5163 18.0427 42.031 18.08C41.555 18.1173 41.0883 18.136 40.631 18.136C40.4723 18.136 40.253 18.1267 39.973 18.108C39.945 18.6773 39.931 19.2047 39.931 19.69C39.931 20.3527 40.3697 20.684 41.247 20.684C41.7137 20.684 42.101 20.6513 42.409 20.586C42.717 20.5207 43.0717 20.4273 43.473 20.306C43.8463 20.166 44.145 20.096 44.369 20.096Z" fill="#BD6600"/>
</svg>
