<svg width="40" height="41" viewBox="0 0 40 41" fill="none" xmlns="http://www.w3.org/2000/svg">
<g clip-path="url(#clip0_101_24)">
<path d="M37.9201 16.917C37.4855 16.925 37.0565 16.9226 36.7119 16.9205L36.483 16.9194L34.3081 12.8476C34.4368 12.6969 34.5717 12.543 34.7096 12.3853C35.1131 11.9238 35.5302 11.4464 35.9166 10.9315C36.403 10.2834 36.3628 9.53317 35.8117 8.97384L35.7767 8.93816C34.3996 7.53928 32.9752 6.0928 31.5104 4.73697C31.0942 4.35175 30.7268 4.18062 30.3596 4.19643C29.9715 4.21367 29.5871 4.44679 29.1509 4.92952C28.8351 5.27861 28.53 5.62785 28.2068 5.99772C28.1012 6.11889 27.9941 6.24117 27.886 6.36467C26.922 5.38808 25.7143 4.80485 24.0106 4.49108C24.0106 4.39243 24.0125 4.29471 24.0138 4.19797C24.0179 3.88582 24.0217 3.59111 24.0067 3.28992C23.9198 1.55323 23.429 1.07757 21.7225 1.07708H21.7087C20.6404 1.07708 19.5559 1.1148 18.5072 1.1514C18.0083 1.16865 17.5108 1.1862 17.0126 1.19974C16.2465 1.2207 15.7765 1.64299 15.6893 2.38871C15.6323 2.87661 15.595 3.36393 15.562 3.79394C15.5515 3.93148 15.5416 4.06284 15.5316 4.18569L11.6791 6.36698C11.6 6.27024 11.5194 6.17041 11.4376 6.06867C11.1716 5.73926 10.8966 5.39839 10.5988 5.06785C10.1732 4.59511 9.76195 4.35618 9.34143 4.33779C8.93169 4.32249 8.51872 4.50982 8.07954 4.91936C6.82647 6.08785 5.63087 7.25551 4.5262 8.38999C3.62187 9.31821 3.57874 10.0991 4.37248 11.1772C4.65541 11.5609 4.97037 11.9237 5.22336 12.2152C5.29705 12.3002 5.3661 12.3794 5.42856 12.4528L3.71037 17.0804C3.53223 17.0965 3.35134 17.1112 3.16866 17.126C2.66734 17.167 2.14898 17.2092 1.6335 17.2786C0.694109 17.4047 0.328293 17.8176 0.328613 18.7508C0.328613 20.5519 0.347602 22.051 0.385744 23.4688C0.399908 23.9962 0.547645 24.3864 0.8251 24.6283C1.11157 24.8782 1.51859 24.9698 2.07125 24.9074C2.38202 24.8727 2.69184 24.8322 3.0018 24.7916L3.08307 24.7808C3.085 24.7985 3.08975 24.8158 3.09705 24.8321L5.04006 29.0714C4.78997 29.2637 4.53944 29.455 4.28848 29.6458C4.01444 29.8547 3.74085 30.0639 3.46771 30.2736C2.66801 30.8895 2.51929 31.5919 3.02543 32.3611C3.85489 33.6209 4.8302 35.0764 5.91121 36.4053C6.86816 37.5822 7.64433 37.6662 8.98687 36.7409C9.54565 36.3556 10.1017 35.967 10.6619 35.5747L11.3182 35.1159C12.7799 36.2783 14.2375 36.809 15.8555 36.7852C15.8407 36.9223 15.8262 37.0527 15.8123 37.1785C15.7704 37.5536 15.7342 37.8776 15.7115 38.2085C15.6526 39.0739 15.769 39.6113 16.0886 39.9521C16.4002 40.2838 16.9084 40.4326 17.7324 40.4326H17.7856C18.9024 40.4244 20.0377 40.4046 21.1355 40.3859C21.5887 40.3777 22.0417 40.3703 22.4949 40.3628C23.1269 40.3529 23.5732 40.1941 23.8606 39.8771C24.148 39.5601 24.2629 39.099 24.2105 38.4682C24.1751 38.0344 24.1356 37.6008 24.1001 37.2113L24.0679 36.859L27.442 35.4354L27.5119 35.5308C27.6371 35.7017 27.7645 35.8756 27.8905 36.0505C27.9534 36.138 28.0147 36.2264 28.0761 36.3151C28.1861 36.4744 28.3002 36.6391 28.4229 36.7956C29.0274 37.5665 29.6932 37.73 30.5819 37.3268C30.8748 37.2041 31.1504 37.0428 31.4011 36.8475C31.6888 36.608 31.977 36.3688 32.2656 36.1298C33.4423 35.1541 34.6592 34.1452 35.8155 33.1054C36.3417 32.6319 36.5834 32.2356 36.5998 31.8202C36.616 31.3966 36.3906 30.9626 35.8691 30.4135C35.4883 30.013 35.1042 29.616 34.7514 29.2515L34.3973 28.8848L36.6252 24.6266C36.7158 24.6179 36.8147 24.6087 36.9198 24.5991C37.2714 24.5668 37.7084 24.526 38.1397 24.4749C39.0599 24.3661 39.3874 24.065 39.6001 23.1334C40.0331 21.2371 39.6967 19.3864 39.3556 17.9861C39.1819 17.2725 38.6848 16.9084 37.9201 16.917ZM34.0992 23.5057C33.6296 25.4051 32.9663 26.7288 31.9484 27.7978C31.5357 28.2314 31.5506 28.8386 31.9896 29.4637C32.3881 30.0314 32.8035 30.5822 33.2435 31.1655C33.3998 31.373 33.5591 31.5839 33.7208 31.8006L29.9178 34.8284C29.812 34.7019 29.7079 34.5772 29.6063 34.454C29.3071 34.0942 29.0249 33.7544 28.7268 33.4202C27.9337 32.5313 27.5173 32.5678 26.4989 33.1539C25.6907 33.6011 24.8398 33.9653 23.9586 34.2413C21.9364 34.9168 21.7844 35.8195 21.7742 37.2259C21.7729 37.4043 21.7609 37.5884 21.748 37.7834C21.7446 37.8329 21.7414 37.8831 21.7382 37.9347H17.9883L17.9679 37.4833C17.9491 37.0629 17.9309 36.6587 17.9104 36.255C17.8527 35.1228 17.6138 34.7129 16.3873 34.6686C14.55 34.6023 13.0045 34.0637 11.6623 33.0217C11.1516 32.6247 10.5607 32.658 9.85546 33.1223C9.32967 33.4689 8.81226 33.8267 8.26426 34.2058C8.06331 34.3449 7.85743 34.487 7.64659 34.6321L5.2496 31.4113C5.39787 31.2868 5.54421 31.1631 5.68863 31.0398C6.10416 30.6868 6.49638 30.3531 6.90935 30.0356C7.59077 29.5116 7.64724 29.2041 7.19792 28.4672C6.38292 27.1305 5.54123 25.5114 5.477 23.6365C5.45479 22.9798 5.07015 22.6349 4.33434 22.6112C3.9016 22.5971 3.4653 22.6002 3.00162 22.6031C2.8373 22.6043 2.66848 22.6055 2.49338 22.606L2.33004 19.4509C2.56726 19.4259 2.79676 19.3998 3.02031 19.3745C3.61576 19.3068 4.17904 19.2431 4.7375 19.2171C5.42712 19.1849 5.83057 18.8176 5.93678 18.1238C6.24644 16.1031 6.81762 14.5371 7.73415 13.195C7.88396 13.0043 7.9663 12.7693 7.96828 12.5267C7.97025 12.284 7.89176 12.0476 7.7451 11.8545C7.40734 11.3642 7.06821 10.8755 6.72766 10.3882L6.41494 9.93884L9.48515 6.80808C9.60617 6.92631 9.72726 7.0446 9.84838 7.16284C10.2024 7.50902 10.5678 7.86664 10.9339 8.21412C11.6523 8.89518 11.8569 8.80197 12.6067 8.29859C13.5546 7.66184 14.5688 7.00107 15.6299 6.53349C16.5425 6.13151 17.3586 5.66445 17.3198 4.38182C17.3243 4.11089 17.3608 3.84147 17.4287 3.57916C17.4506 3.4771 17.4727 3.3723 17.4931 3.26395H21.7699C21.7708 3.35214 21.7726 3.44126 21.7742 3.53107C21.7803 3.85146 21.7866 4.18251 21.7634 4.50661C21.6727 5.7686 22.0941 6.30455 23.2667 6.41792C24.506 6.53787 25.5896 7.08964 26.7784 8.20766C27.411 8.80197 27.7603 8.91382 28.4607 8.35787C28.9275 7.98701 29.3601 7.59573 29.8175 7.18087C29.9745 7.03876 30.1327 6.8961 30.2927 6.75282L33.3591 9.98756C33.2868 10.0635 33.2095 10.1439 33.1283 10.2284C32.813 10.5567 32.4557 10.9288 32.1022 11.3182C31.1558 12.361 31.1499 12.7532 32.0637 13.7851C33.0321 14.8503 33.7143 16.1446 34.0463 17.5466C34.2316 18.3573 34.6965 18.7515 35.5091 18.7879C35.8992 18.8052 36.2892 18.8265 36.7288 18.8498L37.2381 18.8769L37.4189 22.264H36.9434C36.5196 22.2631 36.137 22.2627 35.7541 22.2658C34.7568 22.2742 34.3235 22.5988 34.0992 23.5057Z" fill="#BD6600"/>
<path d="M21.3778 10.5687C19.799 10.4224 18.208 10.6474 16.7314 11.2256C15.2547 11.8039 13.9331 12.7195 12.8719 13.8996C11.8106 15.0797 11.0389 16.4917 10.6183 18.0232C10.1977 19.5548 10.1397 21.1634 10.449 22.7213C11.2578 26.5606 13.2446 28.9891 16.5231 30.1457C17.4897 30.4801 18.5064 30.645 19.529 30.6339C20.3798 30.6269 21.2285 30.5444 22.065 30.3874C27.4726 29.4182 30.45 25.6157 30.4475 19.6796V19.6759C30.3819 17.8189 29.764 16.0237 28.6731 14.5209C26.9548 12.2191 24.5005 10.8893 21.3778 10.5687ZM27.8813 22.1739C27.2388 25.3924 25.2124 27.2622 21.6867 27.8903C20.5453 28.0935 19.0481 28.2699 17.5903 27.8289C15.0516 27.0605 13.5277 25.2719 12.9316 22.3617C12.8383 21.8492 12.7773 21.3313 12.7488 20.8111C12.7304 20.5693 12.7122 20.3287 12.6876 20.0888C12.6831 19.1217 12.8736 18.1636 13.2476 17.272C13.6216 16.3805 14.1715 15.5737 14.8643 14.9002C16.34 13.476 18.413 12.7365 20.6876 12.8084C23.1431 12.889 25.0885 13.7738 26.4696 15.4366C27.965 17.2376 28.4268 19.4417 27.8813 22.1739Z" fill="#BD6600"/>
</g>
<defs>
<clipPath id="clip0_101_24">
<rect width="40" height="40" fill="white" transform="translate(0 0.8125)"/>
</clipPath>
</defs>
</svg>
