<svg width="30" height="30" viewBox="0 0 30 30" fill="none" xmlns="http://www.w3.org/2000/svg">
<path d="M29.3786 5.895L15.45 0.0894785C15.309 0.0305321 15.1554 0 15 0C14.8446 0 14.691 0.0305321 14.55 0.0894785L0.621432 5.895C0.435453 5.97273 0.278059 6.09699 0.167915 6.25306C0.0577702 6.40912 -0.000503812 6.59044 3.2815e-06 6.77551V23.2245C-0.000503812 23.4096 0.0577702 23.5909 0.167915 23.7469C0.278059 23.903 0.435453 24.0273 0.621432 24.105L14.55 29.9105C14.691 29.9695 14.8446 30 15 30C15.1554 30 15.309 29.9695 15.45 29.9105L29.3786 24.105C29.5645 24.0273 29.7219 23.903 29.8321 23.7469C29.9422 23.5909 30.0005 23.4096 30 23.2245V6.77551C30.0005 6.59044 29.9422 6.40912 29.8321 6.25306C29.7219 6.09699 29.5645 5.97273 29.3786 5.895ZM15 11.5167L3.63215 6.77551L15 2.03433L26.3679 6.77551L15 11.5167ZM27.8571 22.6052L16.0714 27.5206V13.2003L27.8571 8.28494V22.6052Z" fill="#BD6600"/>
</svg>
