<svg width="30" height="30" viewBox="0 0 30 30" fill="none" xmlns="http://www.w3.org/2000/svg">
<path d="M29.6005 0.399364C29.3449 0.143636 28.998 0 28.6364 0L1.36364 0.000363636C0.610545 0.000363636 0 0.610909 0 1.364V8.63636C0 9.38945 0.610545 10 1.36364 10H1.81818V28.6364C1.81818 29.3895 2.42873 30 3.18182 30H26.8182C27.5713 30 28.1818 29.3895 28.1818 28.6364V10H28.6364C29.3895 10 30 9.38945 30 8.63636V1.36364C30 1.00191 29.8564 0.655182 29.6005 0.399364ZM25.4545 27.2727H4.54545V10.0012L25.4545 10.0001V27.2727ZM27.2727 7.27273H2.72727V2.72764L27.2727 2.72727V7.27273Z" fill="#BD6600"/>
<path d="M11.3636 15.4553H18.6364C19.3895 15.4553 20 14.8447 20 14.0916C20 13.3385 19.3895 12.728 18.6364 12.728H11.3636C10.6105 12.728 10 13.3385 10 14.0916C10 14.8447 10.6105 15.4553 11.3636 15.4553Z" fill="#BD6600"/>
</svg>
