<svg width="30" height="30" viewBox="0 0 30 30" fill="none" xmlns="http://www.w3.org/2000/svg">
<g clip-path="url(#clip0_40_105)">
<path d="M15 0C11.1546 0.0109683 7.46023 1.49837 4.68 4.155V1.5C4.68 1.10217 4.52196 0.720644 4.24066 0.43934C3.95935 0.158035 3.57782 0 3.18 0C2.78217 0 2.40064 0.158035 2.11934 0.43934C1.83803 0.720644 1.68 1.10217 1.68 1.5V8.25C1.68 8.64782 1.83803 9.02935 2.11934 9.31066C2.40064 9.59196 2.78217 9.75 3.18 9.75H9.93C10.3278 9.75 10.7094 9.59196 10.9907 9.31066C11.272 9.02935 11.43 8.64782 11.43 8.25C11.43 7.85217 11.272 7.47064 10.9907 7.18934C10.7094 6.90803 10.3278 6.75 9.93 6.75H6.33C8.25866 4.73454 10.8293 3.45398 13.5998 3.1285C16.3703 2.80303 19.1677 3.45296 21.511 4.96657C23.8542 6.48017 25.5969 8.76287 26.4395 11.4222C27.282 14.0815 27.1717 16.9513 26.1276 19.5381C25.0835 22.1249 23.1707 24.2671 20.7182 25.5965C18.2657 26.9258 15.4267 27.3591 12.6893 26.822C9.95194 26.2849 7.4872 24.8108 5.71888 22.6533C3.95057 20.4958 2.98918 17.7896 3 15C3 14.6022 2.84196 14.2206 2.56066 13.9393C2.27936 13.658 1.89782 13.5 1.5 13.5C1.10217 13.5 0.720644 13.658 0.43934 13.9393C0.158035 14.2206 0 14.6022 0 15C0 17.9667 0.879734 20.8668 2.52796 23.3335C4.17618 25.8003 6.51885 27.7229 9.25974 28.8582C12.0006 29.9935 15.0166 30.2905 17.9263 29.7118C20.8361 29.133 23.5088 27.7044 25.6066 25.6066C27.7044 23.5088 29.133 20.8361 29.7118 17.9263C30.2905 15.0166 29.9935 12.0006 28.8582 9.25974C27.7229 6.51885 25.8003 4.17618 23.3335 2.52796C20.8668 0.879734 17.9667 0 15 0ZM15 9C14.6022 9 14.2206 9.15803 13.9393 9.43934C13.658 9.72064 13.5 10.1022 13.5 10.5V15C13.5 15.3978 13.658 15.7794 13.9393 16.0607C14.2206 16.342 14.6022 16.5 15 16.5H18C18.3978 16.5 18.7794 16.342 19.0607 16.0607C19.342 15.7794 19.5 15.3978 19.5 15C19.5 14.6022 19.342 14.2206 19.0607 13.9393C18.7794 13.658 18.3978 13.5 18 13.5H16.5V10.5C16.5 10.1022 16.342 9.72064 16.0607 9.43934C15.7794 9.15803 15.3978 9 15 9Z" fill="#BD6600"/>
</g>
<defs>
<clipPath id="clip0_40_105">
<rect width="30" height="30" fill="white"/>
</clipPath>
</defs>
</svg>
