<svg width="30" height="30" viewBox="0 0 30 30" fill="none" xmlns="http://www.w3.org/2000/svg">
<path d="M27.779 22.3742C27.7377 22.2502 27.6668 22.1381 27.5783 22.0495L20.8529 15.3241L29.698 6.47889C30.2885 5.88843 29.8516 5.45739 29.698 5.30386L24.6377 0.243567C24.313 -0.0811891 23.7875 -0.0811891 23.4627 0.243567L14.6175 9.08875L6.66395 1.13517C5.15826 -0.370518 2.66059 -0.376422 1.14899 1.13517C-0.374408 2.65857 -0.374408 5.13263 1.14899 6.65603L9.09667 14.6096L0.245582 23.4607C-0.079175 23.7855 -0.079175 24.311 0.245582 24.6357L5.29997 29.696C5.4535 29.8495 5.89044 30.2865 6.475 29.696L15.332 20.8449L22.0574 27.5703C22.146 27.6589 22.2582 27.7298 22.3822 27.7711L28.9009 29.9499C29.2552 30.068 29.5327 29.9676 29.7512 29.7492C29.9756 29.5248 30.0523 29.1941 29.9519 28.8989L27.779 22.3742ZM16.3063 9.75598L18.0718 11.5215C18.3965 11.8462 18.922 11.8462 19.2468 11.5215C19.542 11.2262 19.5715 10.6712 19.2468 10.3464L17.4813 8.58095L18.8807 7.18155L19.6483 7.94915C19.9731 8.27391 20.4986 8.27391 20.8233 7.94915C21.1304 7.64211 21.1894 7.14021 20.8233 6.77413L20.0557 6.00652L21.4551 4.60711L23.1911 6.34308C23.5159 6.66784 24.0414 6.66784 24.3661 6.34308C24.6968 6.01242 24.6909 5.49281 24.3661 5.16806L22.6302 3.42618L24.0473 2.00906L27.9325 5.88843L19.6778 14.149L15.7926 10.2638L16.3063 9.75598ZM2.32402 5.481C1.45013 4.60711 1.45013 3.18999 2.32402 2.3161C3.15658 1.48355 4.61503 1.44812 5.48892 2.3161L6.40415 3.23133L3.23925 6.39623L2.32402 5.481ZM5.89044 27.9305L2.01108 24.0512L3.42819 22.6341L4.20761 23.4135C4.53237 23.7382 5.05788 23.7441 5.38264 23.4135C5.7074 23.0887 5.7074 22.5632 5.38264 22.2384L4.60913 21.4531L6.00853 20.0537L7.75631 21.8015C8.1224 22.1676 8.6243 22.1085 8.93134 21.8015C9.2561 21.4767 9.2561 20.9512 8.93134 20.6265L7.18356 18.8787L8.58297 17.4793L9.36238 18.2587C9.68714 18.5835 10.2422 18.5539 10.5374 18.2587C10.8622 17.9339 10.8622 17.4084 10.5374 17.0837L9.75799 16.3043L10.2776 15.7846L14.1629 19.664L5.89044 27.9305ZM4.41427 7.57125L7.57917 4.40635L25.8069 22.6341L22.642 25.799L4.41427 7.57125ZM24.189 26.6138L26.6276 24.1752L27.8499 27.8302L24.189 26.6138Z" fill="#BD6600"/>
</svg>
